<svg width="938" height="574" viewBox="0 0 938 574" fill="none" xmlns="http://www.w3.org/2000/svg">
<path d="M594.727 377.617H404.297C401.074 377.617 398.438 374.98 398.438 371.758C398.438 368.535 401.074 365.898 404.297 365.898H594.727C597.949 365.898 600.586 368.535 600.586 371.758C600.586 374.98 597.949 377.617 594.727 377.617Z" fill="#274DA0"/>
<path d="M435.543 421.62V376.698H423.824V421.62H435.543Z" fill="#274DA0"/>
<path d="M574.215 421.62V376.698H562.496V421.62H574.215Z" fill="#274DA0"/>
<path d="M158.691 495.293V294.316H239.16V149.59H376.465V495.293H158.691Z" fill="#CCDAFE"/>
<path d="M280.957 173.516H252.832V195.977H280.957V173.516Z" fill="#A8BEEF"/>
<path d="M323.145 173.516H295.02V195.977H323.145V173.516Z" fill="#A8BEEF"/>
<path d="M365.332 173.516H337.207V195.977H365.332V173.516Z" fill="#A8BEEF"/>
<path d="M280.957 208.672H252.832V231.133H280.957V208.672Z" fill="#A8BEEF"/>
<path d="M323.145 208.672H295.02V231.133H323.145V208.672Z" fill="#A8BEEF"/>
<path d="M365.332 208.672H337.207V231.133H365.332V208.672Z" fill="#A8BEEF"/>
<path d="M280.957 243.73H252.832V266.191H280.957V243.73Z" fill="#A8BEEF"/>
<path d="M323.145 243.73H295.02V266.191H323.145V243.73Z" fill="#A8BEEF"/>
<path d="M365.332 243.73H337.207V266.191H365.332V243.73Z" fill="#A8BEEF"/>
<path d="M280.957 278.887H252.832V301.348H280.957V278.887Z" fill="#A8BEEF"/>
<path d="M323.145 278.887H295.02V301.348H323.145V278.887Z" fill="#A8BEEF"/>
<path d="M365.332 278.887H337.207V301.348H365.332V278.887Z" fill="#A8BEEF"/>
<path d="M280.957 314.043H252.832V336.504H280.957V314.043Z" fill="#A8BEEF"/>
<path d="M238.77 314.043H210.645V336.504H238.77V314.043Z" fill="#A8BEEF"/>
<path d="M196.68 314.043H168.555V336.504H196.68V314.043Z" fill="#A8BEEF"/>
<path d="M323.145 314.043H295.02V336.504H323.145V314.043Z" fill="#A8BEEF"/>
<path d="M365.332 314.043H337.207V336.504H365.332V314.043Z" fill="#A8BEEF"/>
<path d="M280.957 349.199H252.832V371.66H280.957V349.199Z" fill="#A8BEEF"/>
<path d="M238.77 349.199H210.645V371.66H238.77V349.199Z" fill="#A8BEEF"/>
<path d="M196.68 349.199H168.555V371.66H196.68V349.199Z" fill="#A8BEEF"/>
<path d="M323.145 349.199H295.02V371.66H323.145V349.199Z" fill="#A8BEEF"/>
<path d="M365.332 349.199H337.207V371.66H365.332V349.199Z" fill="#A8BEEF"/>
<path d="M280.957 384.258H252.832V406.719H280.957V384.258Z" fill="#A8BEEF"/>
<path d="M238.77 384.258H210.645V406.719H238.77V384.258Z" fill="#A8BEEF"/>
<path d="M196.68 384.258H168.555V406.719H196.68V384.258Z" fill="#A8BEEF"/>
<path d="M323.145 384.258H295.02V406.719H323.145V384.258Z" fill="#A8BEEF"/>
<path d="M365.332 384.258H337.207V406.719H365.332V384.258Z" fill="#A8BEEF"/>
<path d="M280.957 419.414H252.832V441.875H280.957V419.414Z" fill="#A8BEEF"/>
<path d="M238.77 419.414H210.645V441.875H238.77V419.414Z" fill="#A8BEEF"/>
<path d="M196.68 419.414H168.555V441.875H196.68V419.414Z" fill="#A8BEEF"/>
<path d="M323.145 419.414H295.02V441.875H323.145V419.414Z" fill="#A8BEEF"/>
<path d="M365.332 419.414H337.207V441.875H365.332V419.414Z" fill="#A8BEEF"/>
<path d="M619.629 492.559V365.996H681.445V219.902H775.684V288.75H830.469V492.559H619.629Z" fill="#CCDAFE"/>
<path d="M723.633 238.164H695.508V260.625H723.633V238.164Z" fill="#A8BEEF"/>
<path d="M762.988 238.164H734.863V260.625H762.988V238.164Z" fill="#A8BEEF"/>
<path d="M723.633 378.691H695.508V401.152H723.633V378.691Z" fill="#A8BEEF"/>
<path d="M684.277 378.691H656.152V401.152H684.277V378.691Z" fill="#A8BEEF"/>
<path d="M684.277 413.848H656.152V436.309H684.277V413.848Z" fill="#A8BEEF"/>
<path d="M762.988 378.691H734.863V401.152H762.988V378.691Z" fill="#A8BEEF"/>
<path d="M723.633 273.32H695.508V295.781H723.633V273.32Z" fill="#A8BEEF"/>
<path d="M762.988 273.32H734.863V295.781H762.988V273.32Z" fill="#A8BEEF"/>
<path d="M723.633 308.379H695.508V330.84H723.633V308.379Z" fill="#A8BEEF"/>
<path d="M762.988 308.379H734.863V330.84H762.988V308.379Z" fill="#A8BEEF"/>
<path d="M802.344 308.379H774.219V330.84H802.344V308.379Z" fill="#A8BEEF"/>
<path d="M802.344 343.535H774.219V365.996H802.344V343.535Z" fill="#A8BEEF"/>
<path d="M802.344 378.691H774.219V401.152H802.344V378.691Z" fill="#A8BEEF"/>
<path d="M802.344 413.848H774.219V436.309H802.344V413.848Z" fill="#A8BEEF"/>
<path d="M723.633 343.535H695.508V365.996H723.633V343.535Z" fill="#A8BEEF"/>
<path d="M762.988 343.535H734.863V365.996H762.988V343.535Z" fill="#A8BEEF"/>
<path d="M723.633 413.848H695.508V436.309H723.633V413.848Z" fill="#A8BEEF"/>
<path d="M762.988 413.848H734.863V436.309H762.988V413.848Z" fill="#A8BEEF"/>
<path d="M89.8438 529.082C89.8438 529.082 250.098 401.152 491.797 401.152C719.434 401.152 909.18 529.082 909.18 529.082C909.18 529.082 845.215 504.961 709.57 502.422C635.059 501.055 580.273 526.348 488.965 526.348C403.223 526.348 342.676 514.531 251.465 510.918C166.895 507.402 89.8438 529.082 89.8438 529.082Z" fill="url(#paint0_linear_2_3)"/>
<path d="M418.652 405.059C413.281 408.77 410.254 412.969 410.254 417.266C410.254 433.965 454.004 447.441 507.91 447.441C561.816 447.441 605.566 433.867 605.566 417.266C605.566 415.117 604.785 412.969 603.32 410.82C567.676 404.766 530.273 401.055 491.699 401.055C466.406 401.152 441.992 402.617 418.652 405.059Z" fill="url(#paint1_linear_2_3)"/>
<path d="M338.051 484.777C362.273 477.675 379.964 465.288 377.566 457.11C375.168 448.933 353.589 448.062 329.368 455.165C305.146 462.268 287.455 474.655 289.853 482.832C292.251 491.009 313.83 491.88 338.051 484.777Z" fill="#3B6CE4"/>
<path d="M573.339 499.111C575.263 492.818 564.195 483.858 548.619 479.097C533.042 474.336 518.856 475.577 516.933 481.87C515.009 488.162 526.077 497.123 541.654 501.884C557.23 506.645 571.416 505.403 573.339 499.111Z" fill="#3B6CE4"/>
<path d="M731.641 408.965C736.426 403.984 738.867 397.441 737.891 390.801C736.719 382.793 730.957 376.543 723.047 373.418C723.242 371.66 723.242 369.805 722.852 367.949C720.996 359.063 712.305 353.301 703.516 355.156C694.727 357.012 689.063 365.703 690.918 374.59C691.113 375.762 691.504 376.836 691.992 377.812C685.254 383.086 681.348 390.898 682.52 398.906C683.105 402.617 684.57 405.938 686.914 408.77C681.836 412.09 678.711 416.582 678.711 421.465C678.711 431.719 692.383 440.02 709.18 440.02C725.977 440.02 739.648 431.719 739.648 421.465C739.648 416.68 736.621 412.285 731.641 408.965Z" fill="url(#paint2_linear_2_3)"/>
<path d="M708.496 465.898C707.617 465.41 707.031 463.457 707.324 461.699C711.621 426.934 708.594 408.184 707.129 401.836C706.738 400.273 707.031 398.516 707.715 397.539C708.594 396.27 709.766 396.856 710.254 398.906C712.012 406.719 715.234 427.129 710.645 463.457C710.449 465.313 709.473 466.484 708.496 465.898Z" fill="#FF7F2A"/>
<path d="M786.23 454.57C788.965 451.738 790.332 448.027 789.844 444.219C789.16 439.629 785.84 436.113 781.348 434.258C781.445 433.281 781.445 432.207 781.25 431.133C780.176 426.055 775.195 422.832 770.215 423.809C765.137 424.883 762.012 429.863 763.086 434.941C763.184 435.625 763.379 436.211 763.672 436.797C759.766 439.824 757.617 444.219 758.301 448.809C758.594 450.957 759.473 452.812 760.84 454.473C757.91 456.328 756.152 458.867 756.152 461.699C756.152 467.559 763.965 472.246 773.535 472.246C783.105 472.246 790.918 467.461 790.918 461.699C790.723 458.965 789.062 456.426 786.23 454.57Z" fill="url(#paint3_linear_2_3)"/>
<path d="M773.047 487.09C772.559 486.797 772.266 485.723 772.363 484.648C774.805 464.824 773.145 454.18 772.266 450.469C772.07 449.59 772.168 448.613 772.559 448.027C773.047 447.246 773.73 447.637 774.023 448.809C775 453.203 776.855 464.922 774.219 485.625C774.121 486.699 773.535 487.383 773.047 487.09Z" fill="#FF7F2A"/>
<path d="M699.609 334.844H299.414C293.945 334.844 289.551 330.449 289.551 324.98V71.2695C289.551 65.8008 293.945 61.4062 299.414 61.4062H699.609C705.078 61.4062 709.473 65.8008 709.473 71.2695V324.98C709.473 330.449 704.98 334.844 699.609 334.844Z" fill="#3B6CE4"/>
<path d="M709.473 110.234H289.551V71.1718C289.551 65.8008 293.945 61.4062 299.316 61.4062H699.707C705.078 61.4062 709.473 65.8008 709.473 71.1718V110.234Z" fill="#5D94FA"/>
<path d="M330.566 94.6093H316.895C312.598 94.6093 309.082 91.0937 309.082 86.7968C309.082 82.5 312.598 78.9843 316.895 78.9843H330.566C334.863 78.9843 338.379 82.5 338.379 86.7968C338.379 91.0937 334.863 94.6093 330.566 94.6093Z" fill="white"/>
<path d="M619.629 94.6093H355.957C351.66 94.6093 348.145 91.0937 348.145 86.7968C348.145 82.5 351.66 78.9843 355.957 78.9843H619.727C624.023 78.9843 627.539 82.5 627.539 86.7968C627.441 91.0937 624.023 94.6093 619.629 94.6093Z" fill="white"/>
<path d="M668.359 75.0781C671.056 75.0781 673.242 72.892 673.242 70.1953C673.242 67.4986 671.056 65.3125 668.359 65.3125C665.663 65.3125 663.477 67.4986 663.477 70.1953C663.477 72.892 665.663 75.0781 668.359 75.0781Z" fill="white"/>
<path d="M683.984 75.0781C686.681 75.0781 688.867 72.892 688.867 70.1953C688.867 67.4986 686.681 65.3125 683.984 65.3125C681.288 65.3125 679.102 67.4986 679.102 70.1953C679.102 72.892 681.288 75.0781 683.984 75.0781Z" fill="white"/>
<path d="M699.609 75.0781C702.306 75.0781 704.492 72.892 704.492 70.1953C704.492 67.4986 702.306 65.3125 699.609 65.3125C696.913 65.3125 694.727 67.4986 694.727 70.1953C694.727 72.892 696.913 75.0781 699.609 75.0781Z" fill="white"/>
<path d="M451.074 250.273H437.695V279.375H416.895V250.273H369.043V235.137L410.937 167.168H437.695V233.379H451.074V250.273V250.273ZM416.895 233.281V210.332C416.895 203.789 417.48 193.633 417.773 187.09H417.188C414.453 193.047 411.426 199.199 408.203 205.352L390.723 233.281H416.895Z" fill="#285BBF"/>
<path d="M462.012 222.832C462.012 183.965 477.148 165.02 500.098 165.02C522.852 165.02 538.086 184.16 538.086 222.832C538.086 261.504 522.949 281.523 500.098 281.523C477.148 281.523 462.012 261.504 462.012 222.832ZM516.895 222.832C516.895 191.387 509.57 182.305 500 182.305C490.332 182.305 483.008 191.387 483.008 222.832C483.008 254.375 490.332 264.141 500 264.141C509.668 264.043 516.895 254.375 516.895 222.832Z" fill="#285BBF"/>
<path d="M629.883 250.273H616.504V279.375H595.703V250.273H547.852V235.137L589.746 167.168H616.504V233.379H629.883V250.273ZM595.703 233.281V210.332C595.703 203.789 596.289 193.633 596.582 187.09H595.996C593.262 193.047 590.234 199.199 587.012 205.352L569.531 233.281H595.703Z" fill="#285BBF"/>
<path d="M450.879 244.023H437.5V273.125H416.699V244.023H368.848V228.887L410.742 160.918H437.5V227.129H450.879V244.023ZM416.699 227.031V204.082C416.699 197.539 417.285 187.383 417.578 180.84H416.992C414.258 186.797 411.23 192.949 408.008 199.102L390.625 227.031H416.699Z" fill="white"/>
<path d="M461.816 216.484C461.816 177.617 476.953 158.672 499.902 158.672C522.656 158.672 537.891 177.813 537.891 216.484C537.891 255.156 522.754 275.176 499.902 275.176C476.953 275.273 461.816 255.254 461.816 216.484ZM516.699 216.484C516.699 185.039 509.375 175.957 499.805 175.957C490.137 175.957 482.812 185.039 482.812 216.484C482.812 248.027 490.137 257.793 499.805 257.793C509.473 257.793 516.699 248.125 516.699 216.484Z" fill="white"/>
<path d="M629.688 244.023H616.309V273.125H595.508V244.023H547.656V228.887L589.551 160.918H616.309V227.129H629.688V244.023ZM595.508 227.031V204.082C595.508 197.539 596.094 187.383 596.387 180.84H595.801C593.066 186.797 590.039 192.949 586.816 199.102L569.336 227.031H595.508Z" fill="white"/>
<path d="M621.777 151.445C620.703 151.055 619.629 151.641 619.238 152.715C618.848 153.789 619.336 154.863 620.313 155.254C621.387 155.645 622.461 155.059 622.852 153.984C623.34 152.91 622.852 151.836 621.777 151.445Z" fill="#285BBF"/>
<path d="M629.102 145C629.98 142.461 628.711 140.605 626.367 139.727C624.609 139.141 622.949 139.434 621.484 140.215L622.559 142.266C623.437 141.875 624.316 141.68 625.195 141.973C626.27 142.363 626.66 143.242 626.27 144.219C625.586 146.074 621.777 146.172 621.094 149.492L623.633 150.371C624.316 147.539 628.125 147.832 629.102 145Z" fill="#285BBF"/>
<path d="M641.895 152.812C640.918 151.25 639.356 150.469 637.695 150.273L637.305 152.52C638.281 152.715 639.063 153.008 639.551 153.789C640.137 154.668 639.941 155.645 639.063 156.23C637.402 157.305 634.277 155.059 631.738 157.402L633.203 159.648C635.547 157.793 638.379 160.234 640.918 158.672C643.164 157.207 643.262 154.961 641.895 152.812Z" fill="#285BBF"/>
<path d="M628.418 158.965C627.441 159.551 627.148 160.723 627.734 161.699C628.32 162.676 629.492 162.871 630.469 162.187C631.445 161.602 631.738 160.43 631.055 159.453C630.566 158.574 629.395 158.379 628.418 158.965Z" fill="#285BBF"/>
<path d="M607.52 150.566C606.445 150.762 605.859 151.836 606.055 153.008C606.348 154.082 607.324 154.766 608.399 154.57C609.473 154.375 610.059 153.301 609.863 152.129C609.57 151.055 608.594 150.371 607.52 150.566Z" fill="#285BBF"/>
<path d="M605.078 138.262C603.32 138.652 602.051 139.824 601.172 141.289L603.223 142.461C603.711 141.68 604.395 140.996 605.273 140.801C606.348 140.605 607.129 141.094 607.422 142.07C607.91 144.023 604.688 146.172 605.859 149.395L608.496 148.809C607.52 145.977 610.938 144.219 610.254 141.289C609.668 138.555 607.52 137.676 605.078 138.262Z" fill="#285BBF"/>
<path d="M621.777 150.176C620.703 149.785 619.629 150.371 619.238 151.445C618.848 152.52 619.336 153.594 620.313 153.984C621.387 154.375 622.461 153.789 622.852 152.715C623.34 151.738 622.852 150.566 621.777 150.176Z" fill="#EFBB81"/>
<path d="M629.102 143.828C629.98 141.289 628.711 139.434 626.367 138.555C624.609 137.969 622.949 138.262 621.484 139.043L622.559 141.094C623.437 140.703 624.316 140.508 625.195 140.801C626.27 141.191 626.66 142.07 626.27 143.047C625.586 144.902 621.777 145 621.094 148.32L623.633 149.199C624.316 146.27 628.125 146.562 629.102 143.828Z" fill="#EFBB81"/>
<path d="M641.895 151.641C640.918 150.078 639.356 149.297 637.695 149.102L637.305 151.348C638.281 151.543 639.063 151.836 639.551 152.617C640.137 153.496 639.941 154.473 639.063 155.059C637.402 156.133 634.277 153.887 631.738 156.23L633.203 158.477C635.547 156.621 638.379 159.063 640.918 157.5C643.164 155.938 643.262 153.691 641.895 151.641Z" fill="#EFBB81"/>
<path d="M628.418 157.695C627.441 158.281 627.148 159.453 627.734 160.43C628.32 161.406 629.492 161.602 630.469 160.918C631.445 160.332 631.738 159.16 631.055 158.184C630.566 157.305 629.395 157.109 628.418 157.695Z" fill="#EFBB81"/>
<path d="M607.52 149.297C606.445 149.492 605.859 150.566 606.055 151.738C606.348 152.812 607.324 153.496 608.399 153.301C609.473 153.105 610.059 152.031 609.863 150.859C609.57 149.785 608.594 149.102 607.52 149.297Z" fill="#EFBB81"/>
<path d="M605.078 136.992C603.32 137.383 602.051 138.555 601.172 140.02L603.223 141.191C603.711 140.41 604.395 139.727 605.273 139.531C606.348 139.336 607.129 139.824 607.422 140.801C607.91 142.754 604.688 144.902 605.859 148.125L608.496 147.539C607.52 144.707 610.938 142.949 610.254 140.02C609.668 137.285 607.52 136.406 605.078 136.992Z" fill="#EFBB81"/>
<path d="M536.621 357.891H462.305C461.23 357.891 460.352 357.012 460.352 355.938V314.824C460.352 313.75 461.23 312.871 462.305 312.871H536.621C537.695 312.871 538.574 313.75 538.574 314.824V355.938C538.574 357.012 537.695 357.891 536.621 357.891Z" fill="#353535"/>
<path d="M536.621 315.898H462.402V354.961H536.621V315.898Z" fill="white"/>
<path d="M496.777 341.777H505.566V356.816H495.996L496.777 341.777Z" fill="#FDCACA"/>
<path d="M489.844 332.598C489.844 332.598 487.5 332.305 487.305 333.867C487.012 335.43 487.793 338.75 488.379 339.238C489.355 340.312 491.504 338.262 491.504 338.262L489.844 332.598Z" fill="#FDCACA"/>
<path d="M508.301 338.359C508.301 338.359 510.84 339.922 511.914 339.141C512.988 338.359 513.672 335.82 513.672 334.746C513.672 333.672 513.965 332.695 512.598 332.695C511.23 332.695 510.547 332.402 510.254 332.695C509.961 332.988 508.301 338.359 508.301 338.359Z" fill="#FDCACA"/>
<path d="M479.199 398.32C479.199 398.32 467.285 392.363 462.695 395.781C458.008 399.102 457.031 400.176 456.543 402.227C456.055 404.277 461.719 419.023 463.77 421.562C465.82 424.102 470.996 429.863 472.07 433.477C473.145 437.09 476.758 448.711 482.422 449.492C488.086 450.273 511.523 453.594 516.699 450.762C521.875 447.93 524.707 443.828 525.488 442.266C526.269 440.703 526.758 436.894 529.102 433.477C531.445 430.156 536.035 423.906 537.402 420.879C538.672 417.754 541.016 409.551 541.016 407.5C541.016 405.449 537.109 399.785 535.645 398.711C534.082 397.637 526.855 401.25 525.879 402.812C524.902 404.375 479.199 404.375 479.199 404.375V398.32Z" fill="#274DA0"/>
<path d="M514.063 309.551C509.766 302.52 501.27 309.941 500.684 310.527C500.098 311.113 497.168 308.184 490.527 311.797C486.035 314.238 486.133 315.801 485.547 323.809C484.961 331.816 488.574 333.184 488.574 333.184C488.574 333.184 489.062 333.184 489.844 333.281C489.844 334.941 489.844 336.797 489.941 338.066C489.941 338.066 490.332 342.656 493.652 345.195C496.094 346.953 497.559 347.441 499.707 347.637C502.637 347.832 506.152 346.953 508.594 343.144C509.277 342.07 509.473 339.531 509.473 339.531L510.84 332.5C514.062 331.328 518.359 316.484 514.063 309.551Z" fill="#63393F"/>
<path d="M542.188 394.512C540.918 390.117 537.5 380.156 537.5 380.156C536.328 375.566 533.203 369.414 532.812 368.926C532.324 368.145 530.176 361.113 527.051 359.844C521.094 357.402 515.527 355.254 513.965 353.203C512.402 351.152 508.887 349.297 508.887 349.297C508.887 349.297 503.613 350.273 499.219 349.98C495.02 349.688 493.555 348.711 492.578 349.102C492.285 349.199 491.113 351.641 489.063 352.715C487.012 353.789 484.961 352.227 471.484 361.211C471.484 361.211 468.164 362.48 465.527 370.195C464.844 372.344 464.453 373.906 464.16 374.981C464.16 374.981 459.766 389.336 458.496 393.633C457.813 395.879 458.594 397.246 459.473 398.027C460.254 397.344 461.328 396.562 462.598 395.684C465.918 393.34 472.754 395.586 476.563 397.148C476.563 400.957 477.832 405.645 474.512 412.48C471.191 419.414 473.438 435.918 476.563 440.117C479.688 444.219 484.082 447.832 485.059 447.832C485.059 447.832 505.664 450.371 512.109 448.906C518.555 447.344 523.438 436.504 524.219 434.941C525 433.379 529.59 424.883 527.832 420.195C526.074 415.508 522.949 413.457 522.949 413.457C522.949 413.457 523.438 408.672 523.926 403.008C524.805 402.91 525.391 402.715 525.488 402.617C526.562 401.055 533.789 397.441 535.254 398.516C535.742 398.809 536.328 399.492 537.109 400.469L539.355 399.883C539.453 399.883 543.457 398.906 542.188 394.512ZM474.707 385.332C475 386.504 475.879 389.824 476.27 393.145L472.363 391.094L474.707 385.332ZM525 393.73C525.391 389.531 525.684 386.113 525.684 385.723C525.684 385.527 525.684 385.43 525.781 385.43L528.418 391.973L525 393.73Z" fill="#DBEEFE"/>
<path d="M500.293 353.691C500.293 353.691 505.957 353.789 508.301 353.105C510.645 352.422 512.109 351.348 512.109 351.348L508.984 349.395C508.984 349.395 504.492 350.176 500.977 350.078C497.461 350.078 492.676 348.711 492.676 348.906C492.676 349.102 490.039 351.934 490.039 351.934C490.039 351.934 496.875 353.594 500.293 353.691Z" fill="#B9D8ED"/>
<path d="M471.973 397.93L476.855 403.789V402.227L476.758 399.785L471.973 397.93Z" fill="#173872"/>
<path d="M523.828 406.23L526.758 404.277L523.633 408.184L523.828 406.23Z" fill="#173872"/>
<path d="M472.656 390.312L468.359 392.363L473.926 391.875L472.461 391.094L472.656 390.312Z" fill="#B9D8ED"/>
<path d="M527.734 390.312L531.641 392.461H527.246L528.32 391.875L527.734 390.312Z" fill="#B9D8ED"/>
<path d="M474.512 386.016L474.707 385.332L474.902 386.016L474.512 377.422V386.016Z" fill="#B9D8ED"/>
<path d="M525.586 386.602L525 374.199L526.27 386.895L525.684 385.43L525.586 386.602Z" fill="#B9D8ED"/>
<defs>
<linearGradient id="paint0_linear_2_3" x1="491.461" y1="402.668" x2="499.622" y2="531.28" gradientUnits="userSpaceOnUse">
<stop stop-color="#91B3FF"/>
<stop offset="0.4022" stop-color="#6791F2"/>
<stop offset="0.7939" stop-color="#3B6CE4"/>
</linearGradient>
<linearGradient id="paint1_linear_2_3" x1="506.798" y1="399.753" x2="510.688" y2="461.049" gradientUnits="userSpaceOnUse">
<stop stop-color="#91B3FF"/>
<stop offset="0.2484" stop-color="#6795EC"/>
<stop offset="0.7939" stop-color="#004CBF"/>
</linearGradient>
<linearGradient id="paint2_linear_2_3" x1="726.012" y1="429.802" x2="689.925" y2="380.695" gradientUnits="userSpaceOnUse">
<stop stop-color="#EFBB81"/>
<stop offset="0.5011" stop-color="#F79E57"/>
<stop offset="1" stop-color="#FF7F2A"/>
</linearGradient>
<linearGradient id="paint3_linear_2_3" x1="782.975" y1="466.452" x2="762.386" y2="438.434" gradientUnits="userSpaceOnUse">
<stop stop-color="#EFBB81"/>
<stop offset="0.5011" stop-color="#F79E57"/>
<stop offset="1" stop-color="#FF7F2A"/>
</linearGradient>
</defs>
</svg>
